<svg width="25" height="15" viewBox="0 0 25 15" fill="none" xmlns="http://www.w3.org/2000/svg">
<path d="M24.4497 0.573599C24.0972 0.206324 23.6193 0 23.1209 0C22.6225 0 22.1446 0.206324 21.7921 0.573599L12.4887 10.2711L3.18519 0.573599C2.83071 0.216734 2.35595 0.0192666 1.86315 0.0237297C1.37036 0.0281943 0.89896 0.23423 0.550487 0.597463C0.202015 0.960696 0.00435304 1.45206 7.10415e-05 1.96574C-0.00421096 2.4794 0.18523 2.97427 0.527593 3.34376L11.1599 14.4264C11.5123 14.7936 11.9903 15 12.4887 15C12.987 15 13.465 14.7936 13.8175 14.4264L24.4497 3.34376C24.802 2.97637 25 2.47816 25 1.95869C25 1.4392 24.802 0.940985 24.4497 0.573599Z" fill="white"/>
</svg>
