<svg width="30" height="31" viewBox="0 0 30 31" fill="none" xmlns="http://www.w3.org/2000/svg">
<path d="M29.3679 26.8372C29.7703 27.2396 29.9964 27.7852 29.9964 28.3542C29.9964 28.9233 29.7703 29.4691 29.3679 29.8715C28.9656 30.2739 28.4198 30.5 27.8507 30.5C27.2816 30.5 26.7358 30.2739 26.3333 29.8715L15 18.5353L3.66309 29.8679C3.26068 30.2703 2.71489 30.4964 2.14579 30.4964C1.57669 30.4964 1.0309 30.2703 0.628487 29.8679C0.226074 29.4656 8.48023e-09 28.9198 0 28.3507C-8.48023e-09 27.7816 0.226074 27.236 0.628487 26.8336L11.9654 15.5009L0.632057 4.16465C0.229642 3.76226 0.00357019 3.2165 0.00357021 2.64744C0.00357021 2.07838 0.229642 1.53262 0.632057 1.13023C1.03447 0.727844 1.58026 0.501785 2.14935 0.501785C2.71845 0.501785 3.26424 0.727844 3.66666 1.13023L15 12.4665L26.337 1.12845C26.7394 0.726059 27.2852 0.5 27.8542 0.5C28.4233 0.5 28.9691 0.726059 29.3715 1.12845C29.7739 1.53084 30 2.07659 30 2.64566C30 3.21472 29.7739 3.76047 29.3715 4.16287L18.0346 15.5009L29.3679 26.8372Z" fill="white"/>
</svg>
