<svg width="20" height="21" viewBox="0 0 20 21" fill="none" xmlns="http://www.w3.org/2000/svg">
<path d="M10 0.5C8.02219 0.5 6.08879 1.08649 4.4443 2.1853C2.79981 3.28412 1.51809 4.8459 0.761209 6.67316C0.00433254 8.50043 -0.1937 10.5111 0.192152 12.4509C0.578004 14.3907 1.53041 16.1725 2.92894 17.5711C4.32746 18.9696 6.10929 19.922 8.0491 20.3078C9.98891 20.6937 11.9996 20.4957 13.8268 19.7388C15.6541 18.9819 17.2159 17.7002 18.3147 16.0557C19.4135 14.4112 20 12.4778 20 10.5C19.9971 7.84874 18.9425 5.30691 17.0678 3.43218C15.1931 1.55745 12.6513 0.502941 10 0.5ZM10 17.8148C9.18129 16.8566 8.54177 15.7589 8.11204 14.5741H11.8917C11.6471 15.2441 11.337 15.8882 10.9657 16.4972C10.6801 16.9619 10.3571 17.4025 10 17.8148ZM7.54723 12.3518C7.36389 11.1241 7.36389 9.87591 7.54723 8.64815H12.4546C12.638 9.87591 12.638 11.1241 12.4546 12.3518H7.54723ZM2.22223 10.5C2.2222 9.87589 2.29775 9.25408 2.44723 8.64815H5.30093C5.14661 9.87789 5.14661 11.1221 5.30093 12.3518H2.44723C2.29775 11.7459 2.2222 11.1241 2.22223 10.5ZM10 3.18518C10.8187 4.14337 11.4582 5.24113 11.888 6.42592H8.11019C8.35474 5.75595 8.66489 5.11177 9.03611 4.50278C9.32117 4.03818 9.64353 3.59753 10 3.18518ZM14.6972 8.64815H17.5509C17.8509 9.86449 17.8509 11.1355 17.5509 12.3518H14.6991C14.8534 11.1221 14.8534 9.87789 14.6991 8.64815H14.6972ZM16.6204 6.42592H14.2324C13.8988 5.30591 13.416 4.23583 12.7972 3.24444C14.3844 3.86058 15.7273 4.97755 16.6222 6.42592H16.6204ZM7.20278 3.24444C6.58397 4.23583 6.10125 5.30591 5.7676 6.42592H3.37778C4.27272 4.97755 5.61562 3.86058 7.20278 3.24444ZM3.37778 14.5741H5.7676C6.10125 15.6941 6.58397 16.7642 7.20278 17.7556C5.61562 17.1394 4.27272 16.0224 3.37778 14.5741ZM12.7972 17.7556C13.416 16.7642 13.8988 15.6941 14.2324 14.5741H16.6222C15.7273 16.0224 14.3844 17.1394 12.7972 17.7556Z" fill="white"/>
</svg>
